<svg width="130" height="64" viewBox="0 0 130 64" fill="none" xmlns="http://www.w3.org/2000/svg">
<g id="Group 3">
<path id="Vector" d="M109.703 41.7665C109.703 45.9571 112.97 47.5841 116.665 47.5841C119.087 47.5841 122.8 46.8777 122.8 43.6531C122.8 40.4285 118.076 39.6926 113.446 38.4483C108.816 37.204 104.06 35.3789 104.06 29.4998C104.06 23.0534 110.195 19.9679 115.839 19.9679C122.402 19.9679 128.444 22.8393 128.444 30.1153H121.774C121.56 26.3234 118.86 25.3574 115.638 25.3574C113.43 25.3574 110.869 26.2779 110.869 28.9352C110.869 31.3596 112.403 31.6674 120.255 33.6931C122.554 34.2604 129.61 35.7188 129.61 42.9038C129.61 48.6759 125.009 53.0057 116.512 53.0057C109.551 53.0057 103.017 49.567 103.108 41.7986L109.703 41.7692V41.7665Z" fill="#00559F"/>
<path id="Vector_2" d="M73.3365 20.694H80.2527V33.7914L92.5505 20.694H101.186L88.8852 33.1608L102.381 52.2795H93.6867L84.2094 38.0874L80.2527 42.1043V52.2795H73.3365V20.694Z" fill="#00559F"/>
<path id="Vector_3" d="M43.2032 20.694H66.8107V26.5276H50.1412V33.3003H65.4274V38.7019H50.1412V46.446H67.1646V52.2795H43.2032V20.694Z" fill="#00559F"/>
<path id="Vector_4" d="M87.0559 4.4287C107.687 1.81491 114.907 1.5227 129.61 0C129.61 0 67.4552 0.399441 36.8477 10.6723C31.0585 12.7955 -0.0106426 22.2534 0.00546098 42.3675C0.00546098 42.3675 -1.05738 57.0691 26.4717 60.959C40.2375 62.8677 54.1134 63.8489 68.0108 63.8971C68.0108 63.8971 29.7058 61.6989 16.0473 53.3026C16.0473 53.3026 2.00499 45.228 14.5067 30.773C14.5067 30.773 23.4818 18.9775 47.7015 11.7205C47.7015 11.7205 59.8329 7.89231 87.0693 4.43138" fill="#3DC5F6"/>
</g>
</svg>
