<svg width="24" height="25" viewBox="0 0 24 25" fill="none" xmlns="http://www.w3.org/2000/svg">
<g id="Icon">
<path id="language" d="M12 21.9486C10.7615 21.9486 9.59483 21.7117 8.5 21.2381C7.40517 20.7642 6.45167 20.1212 5.6395 19.3091C4.82733 18.4969 4.18433 17.5434 3.7105 16.4486C3.23683 15.3537 3 14.1871 3 12.9486C3 11.7062 3.23683 10.5386 3.7105 9.44558C4.18433 8.35274 4.82733 7.40024 5.6395 6.58808C6.45167 5.77591 7.40517 5.13291 8.5 4.65908C9.59483 4.18541 10.7615 3.94858 12 3.94858C13.2423 3.94858 14.41 4.18541 15.503 4.65908C16.5958 5.13291 17.5483 5.77591 18.3605 6.58808C19.1727 7.40024 19.8157 8.35274 20.2895 9.44558C20.7632 10.5386 21 11.7062 21 12.9486C21 14.1871 20.7632 15.3537 20.2895 16.4486C19.8157 17.5434 19.1727 18.4969 18.3605 19.3091C17.5483 20.1212 16.5958 20.7642 15.503 21.2381C14.41 21.7117 13.2423 21.9486 12 21.9486ZM12 20.9563C12.5872 20.2025 13.0712 19.4621 13.452 18.7351C13.8327 18.0082 14.1423 17.1948 14.3807 16.2948H9.61925C9.88342 17.246 10.1994 18.0851 10.5673 18.8121C10.9353 19.5389 11.4128 20.2537 12 20.9563ZM10.727 20.8063C10.2603 20.2563 9.83433 19.5765 9.449 18.7668C9.06383 17.9572 8.777 17.1332 8.5885 16.2948H4.75375C5.32692 17.5383 6.13942 18.5582 7.19125 19.3543C8.24325 20.1505 9.42183 20.6345 10.727 20.8063ZM13.273 20.8063C14.5782 20.6345 15.7567 20.1505 16.8087 19.3543C17.8606 18.5582 18.6731 17.5383 19.2463 16.2948H15.4115C15.159 17.146 14.8401 17.9764 14.4548 18.7861C14.0696 19.5957 13.6757 20.2692 13.273 20.8063ZM4.34625 15.2948H8.38075C8.30508 14.8845 8.25158 14.4847 8.22025 14.0956C8.18875 13.7066 8.173 13.3242 8.173 12.9486C8.173 12.5729 8.18875 12.1906 8.22025 11.8016C8.25158 11.4124 8.30508 11.0127 8.38075 10.6023H4.34625C4.23725 10.9485 4.15225 11.3257 4.09125 11.7341C4.03042 12.1424 4 12.5472 4 12.9486C4 13.3499 4.03042 13.7547 4.09125 14.1631C4.15225 14.5714 4.23725 14.9487 4.34625 15.2948ZM9.38075 15.2948H14.6193C14.6949 14.8845 14.7484 14.4912 14.7797 14.1148C14.8112 13.7387 14.827 13.3499 14.827 12.9486C14.827 12.5472 14.8112 12.1585 14.7797 11.7823C14.7484 11.406 14.6949 11.0127 14.6193 10.6023H9.38075C9.30508 11.0127 9.25158 11.406 9.22025 11.7823C9.18875 12.1585 9.173 12.5472 9.173 12.9486C9.173 13.3499 9.18875 13.7387 9.22025 14.1148C9.25158 14.4912 9.30508 14.8845 9.38075 15.2948ZM15.6193 15.2948H19.6538C19.7628 14.9487 19.8477 14.5714 19.9088 14.1631C19.9696 13.7547 20 13.3499 20 12.9486C20 12.5472 19.9696 12.1424 19.9088 11.7341C19.8477 11.3257 19.7628 10.9485 19.6538 10.6023H15.6193C15.6949 11.0127 15.7484 11.4124 15.7797 11.8016C15.8112 12.1906 15.827 12.5729 15.827 12.9486C15.827 13.3242 15.8112 13.7066 15.7797 14.0956C15.7484 14.4847 15.6949 14.8845 15.6193 15.2948ZM15.4115 9.60233H19.2463C18.6602 8.33316 17.8573 7.31333 16.8375 6.54283C15.8177 5.77233 14.6295 5.28191 13.273 5.07158C13.7397 5.68574 14.1593 6.38799 14.5318 7.17833C14.9043 7.96883 15.1975 8.77683 15.4115 9.60233ZM9.61925 9.60233H14.3807C14.1166 8.664 13.7909 7.81533 13.4038 7.05633C13.0166 6.29733 12.5487 5.59216 12 4.94083C11.4513 5.59216 10.9834 6.29733 10.5963 7.05633C10.2091 7.81533 9.88342 8.664 9.61925 9.60233ZM4.75375 9.60233H8.5885C8.8025 8.77683 9.09575 7.96883 9.46825 7.17833C9.84075 6.38799 10.2603 5.68574 10.727 5.07158C9.35767 5.28191 8.16633 5.7755 7.153 6.55233C6.1395 7.32933 5.33975 8.346 4.75375 9.60233Z" fill="white"/>
</g>
</svg>
