<svg width="30" height="31" viewBox="0 0 30 31" fill="none" xmlns="http://www.w3.org/2000/svg">
<g id="person_34dp_5F6368_FILL0_wght200_GRAD0_opsz40 1">
<path id="Vector" d="M15 15.1745C13.9688 15.1745 13.102 14.8234 12.3997 14.1211C11.6974 13.4188 11.3462 12.5493 11.3462 11.5126C11.3462 10.476 11.6974 9.6092 12.3997 8.91232C13.102 8.21524 13.9688 7.8667 15 7.8667C16.0312 7.8667 16.898 8.21524 17.6003 8.91232C18.3026 9.6092 18.6537 10.476 18.6537 11.5126C18.6537 12.5493 18.3026 13.4188 17.6003 14.1211C16.898 14.8234 16.0312 15.1745 15 15.1745ZM6.25 24.2179V22.3267C6.25 21.7873 6.40531 21.2979 6.71594 20.8586C7.02656 20.4192 7.4375 20.0769 7.94875 19.8317C9.16563 19.2798 10.3577 18.8633 11.525 18.582C12.6925 18.3008 13.8506 18.1601 14.9994 18.1601C16.1483 18.1601 17.3058 18.3016 18.4719 18.5845C19.6381 18.8672 20.8268 19.2853 22.0378 19.8389C22.5605 20.0814 22.9766 20.4218 23.2859 20.8601C23.5953 21.2985 23.75 21.7873 23.75 22.3267V24.2179H6.25ZM7.30781 23.1601H22.6922V22.3267C22.6922 22.0227 22.5911 21.7322 22.3891 21.4551C22.1868 21.1778 21.9092 20.9465 21.5562 20.7611C20.4631 20.2286 19.3761 19.8383 18.2953 19.5901C17.2143 19.342 16.1158 19.2179 15 19.2179C13.8842 19.2179 12.7815 19.342 11.6919 19.5901C10.6025 19.8383 9.51823 20.2286 8.43906 20.7611C8.08594 20.9465 7.80906 21.1778 7.60844 21.4551C7.40802 21.7322 7.30781 22.0227 7.30781 22.3267V23.1601ZM15 14.1167C15.7281 14.1167 16.3428 13.8661 16.8441 13.3648C17.3455 12.8636 17.5963 12.2489 17.5963 11.5208C17.5963 10.7926 17.3455 10.1778 16.8441 9.67639C16.3428 9.17514 15.7281 8.92451 15 8.92451C14.2719 8.92451 13.6572 9.17514 13.1559 9.67639C12.6545 10.1778 12.4038 10.7926 12.4038 11.5208C12.4038 12.2489 12.6545 12.8636 13.1559 13.3648C13.6572 13.8661 14.2719 14.1167 15 14.1167Z" fill="white"/>
</g>
</svg>
