<svg width="24" height="25" viewBox="0 0 24 25" fill="none" xmlns="http://www.w3.org/2000/svg">
<g id="Icon">
<path id="Vector" d="M20.3073 22.1486L15.1595 16.9493C14.4402 17.54 13.6986 17.9933 12.9348 18.3091C12.1711 18.6247 11.3072 18.7825 10.3431 18.7825C8.29457 18.7825 6.55857 18.0636 5.13514 16.6259C3.71171 15.1882 3 13.4347 3 11.3655C3 9.29638 3.71171 7.54292 5.13514 6.10518C6.55857 4.66745 8.29457 3.94858 10.3431 3.94858C12.3917 3.94858 14.1277 4.66745 15.5511 6.10518C16.9746 7.54292 17.6863 9.29638 17.6863 11.3655C17.6863 12.3393 17.53 13.2151 17.2175 13.9929C16.9049 14.7707 16.4561 15.5228 15.8713 16.2494L21 21.4299L20.3073 22.1486ZM10.3431 17.7936C12.1004 17.7936 13.6005 17.166 14.8433 15.9109C16.0859 14.6556 16.7072 13.1405 16.7072 11.3655C16.7072 9.59058 16.0859 8.07546 14.8433 6.82018C13.6005 5.56507 12.1004 4.93751 10.3431 4.93751C8.58585 4.93751 7.08581 5.56507 5.84302 6.82018C4.6004 8.07546 3.97909 9.59058 3.97909 11.3655C3.97909 13.1405 4.6004 14.6556 5.84302 15.9109C7.08581 17.166 8.58585 17.7936 10.3431 17.7936Z" fill="white"/>
</g>
</svg>
